<?xml version="1.0" encoding="iso-8859-1"?>
<!-- Generator: Adobe Illustrator 19.0.0, SVG Export Plug-In . SVG Version: 6.00 Build 0)  -->
<svg version="1.1" id="Capa_1" xmlns="http://www.w3.org/2000/svg" xmlns:xlink="http://www.w3.org/1999/xlink" x="0px" y="0px"
	 viewBox="0 0 512 512" style="enable-background:new 0 0 512 512;" xml:space="preserve">
<path style="fill:#CFD8DC;" d="M117.333,0h277.333C459.468,0,512,52.532,512,117.333v277.333C512,459.468,459.468,512,394.667,512
	H117.333C52.532,512,0,459.468,0,394.667V117.333C0,52.532,52.532,0,117.333,0z"/>
<path style="fill:#455A64;" d="M402.005,268.907c0.427-4.267,0.661-8.533,0.661-12.907c0-4.373-0.256-8.768-0.683-13.163
	l33.941-26.624c7.446-6.164,9.317-16.821,4.416-25.152l-36.267-62.827c-5.016-8.318-15.294-11.813-24.341-8.277l-39.531,15.893
	c-7.054-5.036-14.552-9.421-22.4-13.099l-5.995-42.56C309.942,70.853,301.79,64.098,292.267,64h-72.533
	c-9.767,0.185-18.016,7.304-19.627,16.939l-5.973,42.133c-7.825,3.694-15.313,8.062-22.379,13.056l-39.723-16.021
	c-9.042-3.331-19.174,0.256-24.107,8.533l-36.267,62.549c-5.067,8.492-3.091,19.42,4.629,25.6l33.621,26.347
	c-0.427,4.267-0.661,8.533-0.661,12.907c0,4.373,0.256,8.768,0.683,13.163l-33.856,26.56c-7.446,6.164-9.317,16.821-4.416,25.152
	l36.267,62.827c4.986,8.317,15.239,11.83,24.277,8.32l39.531-15.915c7.053,5.037,14.551,9.422,22.4,13.099l5.995,42.539
	c1.869,9.366,10.055,16.135,19.605,16.213h72.533c9.774-0.187,18.025-7.316,19.627-16.96l5.909-42.112
	c7.822-3.691,15.309-8.052,22.379-13.035l39.744,15.979c9.047,3.426,19.246-0.181,24.128-8.533l36.267-62.528
	c5.057-8.494,3.082-19.415-4.629-25.6L402.005,268.907z M298.667,256c0,23.564-19.103,42.667-42.667,42.667
	S213.333,279.564,213.333,256s19.103-42.667,42.667-42.667S298.667,232.436,298.667,256z"/>
<path d="M394.667,512H117.333C52.561,511.929,0.071,459.439,0,394.667V117.333C0.071,52.561,52.561,0.071,117.333,0h277.333
	C459.439,0.071,511.929,52.561,512,117.333v277.333C511.929,459.439,459.439,511.929,394.667,512z M117.333,21.333
	c-53.019,0-96,42.981-96,96v277.333c0,53.019,42.981,96,96,96h277.333c53.019,0,96-42.981,96-96V117.333c0-53.019-42.981-96-96-96
	H117.333z"/>
<path d="M292.267,448h-72.533c-9.523-0.098-17.675-6.853-19.541-16.192l-6.059-42.56c-7.848-3.678-15.346-8.062-22.4-13.099
	l-39.467,15.893c-9.034,3.486-19.268-0.012-24.277-8.299l-36.267-62.827c-4.915-8.333-3.032-19.004,4.437-25.152l33.941-26.624
	c-0.427-4.395-0.683-8.768-0.683-13.163s0.256-8.661,0.661-12.907l-33.707-26.347c-7.72-6.18-9.696-17.108-4.629-25.6l36.267-62.549
	c4.921-8.292,15.065-11.882,24.107-8.533l39.765,16c7.028-4.958,14.473-9.298,22.251-12.971l5.973-42.133
	c1.611-9.635,9.86-16.754,19.627-16.939h72.533c9.523,0.098,17.676,6.853,19.541,16.192l6.059,42.56
	c7.848,3.678,15.346,8.062,22.4,13.099l39.467-15.893c9.034-3.496,19.273,0.005,24.277,8.299l36.267,62.827
	c4.901,8.331,3.03,18.988-4.416,25.152l-33.941,26.624c0.427,4.395,0.683,8.768,0.683,13.163s-0.256,8.661-0.661,12.907
	l33.621,26.347c7.703,6.19,9.677,17.105,4.629,25.6l-36.267,62.549c-4.91,8.306-15.065,11.901-24.107,8.533l-39.765-16
	c-7.066,4.994-14.554,9.362-22.379,13.056l-5.909,42.112C310.136,440.689,301.965,447.76,292.267,448z M220.992,426.667h71.275
	l5.248-46.528c0.527-3.704,2.955-6.861,6.4-8.32c10.068-4.267,19.546-9.809,28.203-16.491c3-2.333,7.014-2.894,10.539-1.472
	l43.712,17.579l34.923-60.352l-37.12-29.099c-2.975-2.333-4.493-6.066-3.989-9.813c0.744-5.359,1.129-10.761,1.152-16.171
	c-0.048-5.525-0.454-11.04-1.216-16.512c-0.483-3.737,1.042-7.451,4.011-9.771l37.12-29.184l-34.923-60.245l-43.712,17.579
	c-3.524,1.422-7.539,0.861-10.539-1.472c-8.602-6.716-18.066-12.248-28.139-16.448c-3.451-1.463-5.88-4.63-6.4-8.341l-6.528-46.272
	h-71.275l-5.248,46.528c-0.527,3.704-2.955,6.861-6.4,8.32c-10.068,4.267-19.546,9.809-28.203,16.491
	c-3,2.333-7.014,2.894-10.539,1.472l-43.669-17.6l-34.923,60.352l37.12,29.099c2.975,2.333,4.493,6.066,3.989,9.813
	c-0.759,5.365-1.158,10.774-1.195,16.192c0.048,5.525,0.454,11.04,1.216,16.512c0.487,3.733-1.029,7.446-3.989,9.771l-37.141,29.184
	l34.923,60.352l43.712-17.685c3.524-1.422,7.539-0.861,10.539,1.472c8.602,6.716,18.066,12.248,28.139,16.448
	c3.451,1.463,5.88,4.63,6.4,8.341L220.992,426.667z M256,320c-35.346,0-64-28.654-64-64s28.654-64,64-64s64,28.654,64,64
	S291.346,320,256,320z M256,213.333c-23.564,0-42.667,19.103-42.667,42.667s19.103,42.667,42.667,42.667
	s42.667-19.103,42.667-42.667S279.564,213.333,256,213.333z"/>
<g>
</g>
<g>
</g>
<g>
</g>
<g>
</g>
<g>
</g>
<g>
</g>
<g>
</g>
<g>
</g>
<g>
</g>
<g>
</g>
<g>
</g>
<g>
</g>
<g>
</g>
<g>
</g>
<g>
</g>
</svg>
