<svg id="Layer_1" enable-background="new 0 0 512 512" height="512" viewBox="0 0 512 512" width="512" xmlns="http://www.w3.org/2000/svg"><g><path d="m497.176 0h-193.39c-4.142 0-7.5 3.357-7.5 7.5s3.358 7.5 7.5 7.5h193.214v177.559h-28.113c-2.282 0-4.441 1.039-5.864 2.824l-25.225 31.631-25.225-31.631c-1.423-1.785-3.582-2.824-5.864-2.824h-173.77v-177.559h36.397c4.142 0 7.5-3.357 7.5-7.5s-3.358-7.5-7.5-7.5h-36.574c-8.174 0-14.824 6.653-14.824 14.832v177.896c0 8.178 6.65 14.831 14.824 14.831h170.334l28.837 36.16c1.423 1.785 3.582 2.824 5.864 2.824s4.44-1.039 5.864-2.824l28.837-36.16h24.678c8.174 0 14.824-6.653 14.824-14.831v-177.896c0-8.179-6.65-14.832-14.824-14.832z"/><path d="m279.237 265.457h-201.775c-4.142 0-7.5 3.357-7.5 7.5s3.358 7.5 7.5 7.5h201.599v177.559h-173.77c-2.282 0-4.441 1.039-5.864 2.824l-25.225 31.631-25.225-31.631c-1.423-1.785-3.582-2.824-5.864-2.824h-28.113v-177.559h27.611c4.142 0 7.5-3.357 7.5-7.5s-3.358-7.5-7.5-7.5h-27.787c-8.174 0-14.824 6.653-14.824 14.832v177.896c0 8.178 6.65 14.831 14.824 14.831h24.678l28.837 36.16c1.423 1.785 3.582 2.824 5.864 2.824s4.44-1.039 5.864-2.824l28.837-36.16h170.334c8.174 0 14.824-6.653 14.824-14.831v-177.896c-.001-8.179-6.651-14.832-14.825-14.832z"/><path d="m104.774 229.957c1.406 1.406 3.314 2.196 5.303 2.196s3.897-.79 5.303-2.196l32.797-32.798c2.929-2.93 2.929-7.678 0-10.607-2.929-2.928-7.678-2.928-10.606 0l-19.994 19.995v-72.51c0-18.236 14.836-33.072 33.072-33.072h21.809c4.142 0 7.5-3.357 7.5-7.5s-3.358-7.5-7.5-7.5h-21.808c-26.507 0-48.072 21.565-48.072 48.072v72.51l-19.994-19.995c-2.928-2.928-7.677-2.928-10.606 0-2.929 2.93-2.929 7.678 0 10.607z"/><path d="m406.726 288.043c-1.406-1.406-3.314-2.196-5.303-2.196s-3.897.79-5.303 2.196l-32.797 32.798c-2.929 2.93-2.929 7.678 0 10.607 2.929 2.928 7.678 2.928 10.606 0l19.994-19.995v72.51c0 18.236-14.836 33.072-33.072 33.072h-21.809c-4.142 0-7.5 3.357-7.5 7.5s3.358 7.5 7.5 7.5h21.809c26.507 0 48.072-21.565 48.072-48.072v-72.51l19.994 19.995c1.464 1.464 3.384 2.196 5.303 2.196s3.839-.732 5.303-2.196c2.929-2.93 2.929-7.678 0-10.607z"/><path d="m154.52 314.68h-24.594c-10.637 0-19.292 8.654-19.292 19.291v69.51c0 10.638 8.654 19.292 19.292 19.292h52c4.142 0 7.5-3.357 7.5-7.5s-3.358-7.5-7.5-7.5h-8.114v-73.802c0-10.637-8.655-19.291-19.292-19.291zm-28.885 88.8v-69.51c0-2.366 1.925-4.291 4.292-4.291h24.594c2.366 0 4.292 1.925 4.292 4.291v73.802h-28.885c-2.368 0-4.293-1.925-4.293-4.292z"/><path d="m340.838 152.92 4.28-39.848h39.702l4.28 39.848c.413 3.847 3.665 6.7 7.448 6.7.268 0 .538-.015.811-.044 4.118-.442 7.098-4.14 6.656-8.258l-7.694-71.629c-1.725-16.057-15.203-28.164-31.351-28.164-16.149 0-29.627 12.107-31.351 28.164l-7.694 71.629c-.442 4.118 2.538 7.815 6.656 8.258 4.126.441 7.815-2.537 8.257-6.656zm24.132-86.395c8.466 0 15.533 6.348 16.437 14.766l1.803 16.781h-36.48l1.803-16.781c.904-8.418 7.97-14.766 16.437-14.766z"/></g></svg>